# xmcd CD database file
#
# Track frame offsets:
#	150
#	32565
#	62357
#	81740
#	109312
#	159755
#	186417
#	215075
#	255302
#	289597
#
# Disc length: 4264 seconds
#
# Revision: 0
# Processed by: cddbd v1.5.1PL0 Copyright (c) Steve Scherf et al.
# Submitted via: CDex 1.51
#
DISCID=8910a60a
DTITLE=Various Artist - The Dawn of a New Age Disc 1
DYEAR=1999
DGENRE=New Age
TTITLE0=Jake Stephenson - Sunrise
TTITLE1=Life Cycle - The Flower of Life
TTITLE2=Heavenly Chimes - Avalon
TTITLE3=Dreams - I Feel Peaceful
TTITLE4=Buddah - Spiritual Healing
TTITLE5=Cherish - Choir of Angels
TTITLE6=Self Hypnosis - Third Eye
TTITLE7=Crystal Moon - Sea of Mermaids
TTITLE8=Goddess - Beautiful Dream
TTITLE9=Mind Scape - Mother Earth
EXTD=YEAR: 1999
EXTT0=
EXTT1=
EXTT2=
EXTT3=
EXTT4=
EXTT5=
EXTT6=
EXTT7=
EXTT8=
EXTT9=
PLAYORDER=
